<?xml version="1.0" standalone="no"?>
<!DOCTYPE svg PUBLIC "-//W3C//DTD SVG 20010904//EN"
 "http://www.w3.org/TR/2001/REC-SVG-20010904/DTD/svg10.dtd">
<svg version="1.0" xmlns="http://www.w3.org/2000/svg"
 width="674.000000pt" height="674.000000pt" viewBox="0 0 674.000000 674.000000"
 preserveAspectRatio="xMidYMid meet">

<g transform="translate(0.000000,674.000000) scale(0.100000,-0.100000)"
fill="#000000" stroke="none">
<path d="M3196 6517 c-66 -40 -163 -145 -199 -216 -55 -107 -70 -169 -65 -275
3 -80 8 -99 34 -146 17 -30 54 -74 82 -97 l51 -41 -107 -7 c-132 -8 -142 -11
-142 -39 0 -28 42 -112 75 -149 34 -38 144 -120 183 -136 17 -7 32 -16 32 -20
0 -4 -17 -13 -37 -20 -23 -8 -68 -44 -115 -91 -62 -64 -85 -96 -123 -174 l-46
-96 -97 -64 c-53 -36 -119 -87 -147 -115 -47 -49 -51 -51 -105 -51 -145 -1
-320 -70 -414 -164 -50 -51 -100 -137 -144 -247 -8 -22 -18 -27 -59 -32 -59
-7 -146 -44 -189 -80 -18 -15 -36 -27 -42 -27 -14 0 -79 137 -93 198 -10 42
-10 62 -1 100 17 65 37 88 112 132 36 21 79 47 95 57 17 10 43 43 59 74 l30
56 100 12 c273 34 515 133 573 236 28 49 28 71 4 111 -15 24 -31 34 -83 48
-86 23 -126 49 -144 92 -14 33 -13 39 11 92 14 31 47 91 73 132 44 71 47 79
47 146 0 62 -3 75 -29 108 -48 64 -100 81 -246 81 l-125 0 -92 -47 c-51 -27
-97 -48 -103 -48 -5 0 -10 20 -10 45 0 86 -77 207 -174 274 -43 29 -157 74
-232 91 -143 32 -380 30 -518 -5 -193 -49 -359 -184 -361 -292 -1 -37 -5 -46
-26 -56 -30 -15 -34 -44 -19 -118 9 -43 10 -65 1 -92 -10 -29 -9 -42 3 -72 15
-35 15 -39 -4 -62 -24 -31 -25 -71 -5 -120 18 -43 19 -87 3 -100 -7 -6 -46
-23 -86 -38 -89 -33 -132 -67 -132 -103 0 -103 192 -209 500 -276 17 -3 32
-18 42 -38 19 -40 74 -89 148 -132 79 -45 95 -78 94 -196 -1 -70 -11 -142 -39
-275 -35 -163 -39 -194 -40 -330 0 -128 3 -160 22 -220 27 -84 68 -153 133
-220 34 -35 53 -65 63 -101 22 -76 62 -130 114 -155 39 -19 56 -21 146 -17 81
4 116 11 172 34 69 28 72 28 285 29 199 0 220 2 280 23 91 33 197 97 252 155
46 46 68 53 68 20 0 -33 76 -157 136 -222 59 -63 228 -191 253 -191 20 0 12
-41 -21 -109 -27 -54 -68 -102 -227 -266 -239 -245 -326 -324 -396 -359 -103
-50 -155 -33 -300 104 -158 148 -298 202 -438 167 -156 -38 -269 -128 -344
-273 -61 -116 -115 -162 -195 -165 -18 -1 -46 -5 -63 -9 -29 -7 -27 -8 49 -44
134 -63 220 -70 306 -26 55 28 101 71 183 168 84 101 143 142 204 142 68 0
103 -21 217 -129 121 -115 166 -142 251 -148 142 -11 278 53 477 224 15 14 16
8 17 -69 1 -46 5 -101 11 -123 8 -37 6 -44 -30 -100 -57 -88 -98 -180 -117
-265 l-17 -75 -115 -33 c-169 -48 -251 -91 -341 -182 -65 -64 -86 -94 -139
-200 -35 -69 -77 -141 -92 -161 -26 -33 -144 -119 -163 -119 -5 0 -39 -20 -76
-45 -128 -85 -196 -185 -187 -277 5 -59 38 -108 112 -167 62 -49 96 -109 119
-207 l14 -61 -147 -7 c-80 -4 -162 -11 -181 -15 -33 -7 -34 -8 -10 -14 143
-37 700 -58 1015 -38 190 12 340 25 425 38 l45 6 -40 8 c-22 4 -120 11 -218
15 l-178 7 -28 61 c-41 89 -106 156 -189 194 -55 26 -73 39 -83 65 -35 83 5
180 91 223 25 12 100 36 166 52 161 40 238 77 322 158 65 63 69 66 137 76 88
13 142 38 204 94 36 32 72 52 137 75 49 17 107 40 129 51 57 29 154 100 194
142 39 40 52 42 143 21 35 -7 125 -23 201 -34 148 -21 165 -29 167 -81 1 -14
1 -77 0 -140 -2 -210 56 -336 200 -433 141 -94 192 -195 206 -405 3 -53 10
-107 15 -120 19 -48 19 -48 -173 -62 -101 -6 -196 -15 -213 -19 l-30 -8 40 -7
c141 -24 357 -39 633 -43 343 -6 454 2 582 43 171 54 398 230 460 358 56 116
4 216 -112 216 -31 0 -76 -16 -168 -59 -151 -72 -227 -89 -320 -73 -44 8 -75
21 -99 40 -63 51 -80 96 -107 278 -28 201 -63 335 -111 433 -35 70 -37 80 -38
175 -1 108 -18 175 -59 231 -14 19 -27 60 -35 110 -24 148 -82 268 -184 381
l-55 60 43 63 c43 61 77 146 91 223 3 20 24 61 46 90 50 67 71 108 94 183 22
73 33 87 104 130 63 38 144 120 162 162 6 16 21 57 33 92 l21 64 38 -52 c21
-28 57 -66 79 -85 55 -45 172 -105 220 -112 27 -5 39 -12 42 -28 3 -11 9 -43
15 -69 24 -111 79 -175 230 -267 112 -68 140 -105 140 -186 0 -54 1 -52 -92
-186 -16 -23 -27 -56 -31 -90 -3 -30 -15 -73 -27 -97 -20 -37 -21 -47 -11 -81
12 -41 61 -90 89 -90 10 0 44 -28 77 -61 64 -66 105 -89 157 -89 18 0 51 -7
74 -16 39 -15 44 -15 85 4 42 18 186 132 272 215 l40 38 -6 87 c-10 138 -27
284 -37 322 -6 19 -10 55 -10 80 0 75 -28 227 -69 375 -22 77 -42 165 -46 195
-4 30 -18 88 -31 128 -48 146 -116 235 -245 320 -64 42 -65 44 -76 105 -22
112 -76 209 -173 312 -37 38 -39 45 -50 138 -17 141 -45 213 -127 320 -135
176 -403 270 -626 221 l-27 -6 14 32 c10 25 25 37 61 51 26 10 56 26 67 36 28
25 68 89 68 109 0 9 19 38 43 64 59 65 69 102 51 188 -21 99 -60 142 -131 142
-25 0 -33 5 -41 28 -5 15 -13 34 -17 44 -5 13 1 17 32 22 56 10 113 45 150 94
77 101 46 165 -92 188 -40 6 -40 6 39 25 227 55 336 209 292 416 -17 83 -62
179 -112 240 -54 66 -64 59 -57 -44 6 -102 -8 -186 -40 -235 -12 -19 -46 -45
-77 -61 -55 -29 -56 -29 -188 -22 -112 6 -142 11 -188 32 -72 33 -171 46 -244
33 -48 -9 -62 -8 -91 7 -44 22 -158 29 -225 13 -48 -12 -60 -11 -119 8 -89 30
-168 29 -229 -2 -46 -23 -51 -24 -194 -16 -85 5 -170 15 -200 25 -68 21 -134
80 -150 133 -24 78 -8 211 34 294 28 55 19 60 -40 25z m-76 -268 c0 -33 6 -75
14 -93 34 -82 131 -151 244 -175 29 -6 114 -11 188 -11 142 0 183 -9 218 -48
26 -30 10 -47 -61 -61 -101 -20 -242 -11 -368 25 -17 5 -16 3 4 -11 33 -24
155 -65 199 -66 l37 -1 -40 -11 c-52 -13 -170 3 -248 35 -100 40 -187 106
-220 167 -26 46 -30 64 -31 135 -1 65 4 91 23 133 13 29 27 50 32 47 5 -3 9
-32 9 -65z m-1735 -78 c125 -32 215 -81 279 -152 83 -92 107 -158 69 -191 -22
-19 -92 -42 -100 -34 -8 7 -7 7 39 29 25 11 40 25 44 42 20 80 -117 215 -258
256 -24 6 -16 -5 49 -67 74 -71 77 -74 46 -70 -17 2 -38 8 -45 12 -7 5 2 -11
20 -34 l34 -42 -29 11 c-93 37 -115 28 -26 -11 52 -22 55 -25 33 -31 -14 -4
-49 -7 -78 -8 -62 -1 -63 -21 -1 -21 21 0 39 -4 39 -9 0 -20 -148 -24 -450
-12 -313 11 -456 24 -475 42 -6 6 -4 23 4 47 47 130 197 230 396 263 87 14
321 2 410 -20z m3843 -72 c25 -109 4 -189 -71 -263 -62 -62 -127 -86 -226 -85
-89 1 -129 17 -44 18 62 1 150 27 189 56 14 10 2 9 -44 -5 -64 -20 -134 -25
-189 -14 -22 4 -33 15 -44 42 -8 21 -15 40 -17 44 -2 3 48 4 111 1 105 -5 119
-4 161 16 77 38 146 140 146 218 0 40 16 25 28 -28z m-2098 -215 c25 -18 74
-45 110 -59 108 -44 109 -45 60 -38 -105 13 -214 84 -254 165 -37 74 -32 94 7
24 20 -38 48 -71 77 -92z m883 93 c73 -43 107 -116 70 -149 -19 -16 -183 -81
-189 -75 -2 2 1 19 6 38 6 18 10 45 10 58 0 38 -36 104 -69 126 -16 10 -27 23
-24 28 3 5 38 7 78 5 55 -4 84 -11 118 -31z m248 11 c35 -10 116 -74 106 -84
-7 -7 -187 9 -187 16 0 4 10 12 23 18 19 9 16 11 -24 11 -44 1 -89 28 -72 44
11 11 113 8 154 -5z m311 -28 c101 -31 163 -110 138 -176 l-12 -29 -18 35 -19
35 -1 -37 c0 -63 -21 -47 -82 60 -31 56 -50 64 -28 13 7 -17 9 -39 6 -48 -6
-14 -14 -5 -38 40 -17 31 -44 71 -60 87 -15 16 -28 32 -28 35 0 12 83 3 142
-15z m-144 -102 c14 -13 33 -40 42 -62 15 -33 19 -36 28 -20 8 15 13 12 37
-25 17 -25 31 -38 35 -31 4 7 21 -5 43 -32 l36 -43 31 38 c36 43 47 46 59 14
5 -12 26 -45 46 -71 44 -57 59 -101 44 -127 -5 -11 -12 -19 -15 -19 -3 0 -30
27 -61 60 -59 64 -74 71 -49 21 9 -16 16 -40 16 -53 0 -20 -2 -19 -30 12 -16
19 -29 30 -30 25 0 -6 4 -15 9 -20 11 -12 111 -209 107 -212 -1 -1 -19 9 -40
23 -51 35 -55 25 -9 -21 l38 -37 -45 7 c-105 17 -134 55 -143 184 -7 104 -15
128 -91 244 -49 74 -66 92 -109 114 -37 18 -68 26 -105 26 -63 0 -56 17 10 27
70 10 119 2 146 -22z m-2193 -32 c49 -21 55 -30 55 -84 0 -62 -21 -102 -89
-176 -67 -72 -69 -80 -49 -177 11 -52 10 -60 -13 -105 -18 -37 -35 -54 -69
-71 -69 -35 -132 -31 -252 17 -105 43 -206 59 -360 60 -114 0 -178 33 -178 91
0 59 79 112 275 188 94 36 144 66 250 151 87 68 117 86 195 112 65 22 175 19
235 -6z m-1613 -1 c40 -48 40 -48 97 -40 100 13 111 12 162 -12 63 -29 92 -29
163 -2 l56 22 49 -22 c54 -23 124 -27 184 -10 28 7 53 7 91 -2 41 -9 61 -9 89
0 29 10 44 10 72 0 30 -11 45 -11 95 2 72 19 79 6 13 -22 -42 -19 -54 -20 -94
-9 -36 9 -57 9 -90 0 -25 -7 -67 -9 -96 -6 -29 3 -72 2 -95 -3 -87 -20 -101
-20 -164 2 -63 21 -66 21 -132 4 -87 -22 -100 -22 -157 8 -42 23 -55 25 -119
19 -47 -4 -81 -2 -101 7 -16 6 -48 15 -70 18 -34 5 -40 10 -43 34 -3 25 -1 27
37 27 24 0 45 -6 53 -15z m3714 -62 c34 -11 67 -35 110 -78 66 -65 81 -100 69
-162 -7 -40 -14 -38 -25 9 l-8 33 -1 -30 c-2 -41 -12 -75 -22 -75 -5 0 -9 6
-9 14 0 8 -5 18 -11 22 -7 4 -9 0 -5 -14 4 -11 2 -23 -3 -27 -6 -3 -13 15 -17
45 -4 33 -18 66 -40 98 -19 26 -34 42 -34 37 0 -6 7 -19 15 -29 35 -46 11 -40
-38 8 -29 30 -67 61 -84 70 -38 19 -107 23 -146 7 -43 -17 -45 -13 -7 19 37
32 36 36 -6 20 -24 -9 -25 -9 -14 5 34 41 190 57 276 28z m-1990 -75 c-4 -27
-12 -61 -18 -76 -19 -46 -112 -181 -125 -182 -22 0 -14 23 31 96 65 104 83
143 91 199 6 40 9 46 17 31 6 -10 7 -39 4 -68z m1119 -32 c88 -32 98 -36 93
-42 -3 -2 -47 3 -99 12 -79 13 -106 14 -169 4 -41 -7 -95 -12 -120 -12 -48 0
-160 30 -160 43 0 12 80 17 250 14 120 -1 166 -6 205 -19z m-2685 -1 c132 -3
470 -21 580 -31 35 -4 79 0 117 10 69 18 93 20 93 8 0 -5 -39 -19 -87 -32 -81
-21 -92 -22 -169 -10 -50 8 -109 10 -151 6 -59 -6 -73 -11 -103 -41 -72 -70
-129 -64 -208 22 l-42 46 -63 -5 c-35 -3 -85 -15 -112 -27 -51 -22 -100 -21
-92 2 2 7 17 15 33 18 l29 6 -27 11 c-47 19 -35 35 20 27 26 -4 108 -9 182
-10z m3458 -72 c2 -8 -6 -13 -22 -13 -14 0 -29 -8 -35 -17 -9 -17 -11 -16 -30
1 -16 15 -18 22 -9 33 14 17 90 14 96 -4z m814 -21 c18 -18 -50 -53 -95 -50
-34 3 -41 8 -53 37 l-14 34 75 -5 c42 -3 81 -10 87 -16z m-1789 -87 c48 -9
109 -14 147 -11 l65 5 -40 -14 c-90 -31 -232 -11 -332 46 -76 44 -73 51 7 18
39 -15 107 -35 153 -44z m452 -14 c-59 -119 -84 -277 -66 -426 5 -44 8 -82 6
-83 -11 -11 -38 117 -42 199 -6 102 8 171 49 254 24 48 81 135 86 130 2 -1
-13 -35 -33 -74z m510 -56 c28 -11 52 -22 55 -26 3 -4 14 -9 25 -11 18 -4 17
-6 -8 -18 -20 -10 -24 -16 -15 -22 10 -6 10 -10 -2 -17 -16 -11 -15 -13 14
-28 18 -10 17 -12 -12 -27 -17 -9 -39 -16 -49 -16 -11 -1 0 -11 27 -26 l45
-25 -45 5 c-25 3 -56 8 -70 12 l-25 6 25 -21 25 -21 -39 0 c-37 0 -39 -1 -20
-15 25 -19 15 -19 -29 0 -20 8 -47 15 -59 15 -22 -1 -21 -2 5 -16 50 -27 20
-28 -35 -1 -29 14 -54 24 -57 21 -3 -2 21 -29 52 -59 31 -30 51 -55 44 -55
-17 0 -107 53 -134 79 -12 12 -25 21 -29 21 -8 0 1 -77 12 -104 5 -14 4 -17
-4 -12 -18 11 -59 96 -74 152 l-13 49 -5 -75 -5 -75 -19 80 c-17 69 -18 89 -8
157 10 69 48 168 70 182 5 3 3 -18 -5 -47 -16 -61 -17 -94 -3 -102 6 -3 10 2
10 12 0 23 44 118 59 127 6 4 4 -10 -4 -35 -8 -23 -15 -61 -15 -85 0 -37 6
-51 35 -82 19 -20 35 -32 35 -26 0 6 -7 17 -15 24 -8 7 -15 20 -15 29 0 12 5
10 21 -9 12 -15 22 -20 25 -14 3 7 17 0 34 -17 29 -30 80 -40 80 -16 0 6 -15
20 -33 31 -27 16 -29 19 -14 25 17 6 17 8 -2 25 -38 35 -24 41 37 18 7 -2 -2
19 -19 47 -18 28 -29 54 -26 58 4 3 7 1 7 -5 0 -7 4 -12 9 -12 6 0 6 12 0 32
-5 18 -9 36 -9 40 0 3 26 -19 58 -51 37 -37 74 -64 107 -76z m25 115 c0 -5 -2
-10 -4 -10 -3 0 -8 5 -11 10 -3 6 -1 10 4 10 6 0 11 -4 11 -10z m-3635 -37
c17 -2 41 -9 55 -13 14 -5 75 -12 135 -14 132 -6 125 -5 100 -17 -28 -13 51
-3 138 18 48 12 71 13 78 6 8 -8 -1 -13 -30 -18 -65 -11 -49 -27 19 -19 39 4
60 3 60 -4 0 -13 -54 -32 -94 -33 -26 0 -28 -2 -11 -8 11 -5 44 -7 73 -6 61 3
67 -15 9 -29 -28 -7 -52 -4 -109 13 -122 38 -115 37 -99 18 12 -15 11 -17 -3
-17 -11 0 -14 -5 -10 -12 5 -8 2 -9 -12 -3 -86 35 -125 46 -203 55 -94 11
-141 23 -141 38 0 5 23 3 52 -4 29 -8 66 -14 83 -13 26 1 23 3 -20 16 -65 18
-124 44 -132 56 -4 7 1 8 13 3 10 -4 33 -10 49 -13z m140 7 c-3 -5 -17 -10
-31 -10 -14 0 -22 4 -19 10 3 6 17 10 31 10 14 0 22 -4 19 -10z m110 -9 c20
-8 20 -8 -1 -15 -23 -7 -54 1 -54 15 0 11 27 11 55 0z m393 -23 c-5 -15 -58
-24 -58 -9 0 11 17 19 43 20 11 1 17 -4 15 -11z m3047 -23 c0 -22 -31 -33 -48
-16 -7 7 -6 15 3 26 17 21 45 15 45 -10z m-3643 -129 c42 -9 178 -20 304 -26
125 -5 229 -12 231 -14 6 -5 -87 -36 -109 -36 -10 0 -18 -4 -18 -10 0 -6 29
-7 78 -3 89 7 89 -2 0 -28 -62 -17 -62 -18 -23 -19 31 -1 35 -3 20 -9 -29 -12
-333 -22 -380 -13 -22 5 -39 13 -38 19 1 6 -10 14 -24 18 -40 10 -97 35 -92
40 3 2 27 -2 54 -10 49 -15 164 -21 151 -8 -4 4 -38 13 -75 19 -91 16 -205 71
-209 102 -3 23 -3 23 25 9 16 -9 63 -22 105 -31z m2852 -56 c-18 -87 -17 -190
2 -269 18 -73 62 -176 93 -220 30 -42 26 -46 -14 -14 -106 83 -161 274 -124
432 10 44 49 144 54 139 2 -2 -3 -32 -11 -68z m-200 38 c-5 -7 -20 -31 -34
-53 -56 -84 -100 -238 -99 -345 0 -30 8 -80 19 -110 10 -30 17 -57 14 -59 -6
-6 -64 63 -64 77 0 29 -18 0 -23 -39 -3 -22 -8 -43 -10 -46 -8 -7 -89 37 -119
65 -28 25 -28 25 -28 4 0 -24 -11 -27 -41 -12 -34 19 -20 131 29 228 25 50 49
71 38 35 -3 -10 -8 -45 -12 -77 -5 -43 -4 -57 5 -52 6 4 11 15 11 24 1 31 58
182 94 246 54 96 66 96 34 2 -36 -107 -58 -215 -57 -274 0 -46 1 -45 24 38 34
121 97 243 159 306 49 50 77 70 60 42z m-1110 -55 c-9 -54 -33 -100 -62 -123
-13 -11 -28 -20 -33 -20 -10 0 -16 29 -11 58 5 24 87 122 103 122 6 0 7 -16 3
-37z m2449 -5 c100 -41 104 -42 229 -44 127 -2 158 -9 158 -39 0 -7 -18 -15
-42 -18 -60 -8 -118 -69 -118 -125 0 -43 20 -68 46 -58 10 4 14 1 12 -6 -3 -7
-18 -13 -34 -13 -27 0 -31 5 -49 59 -24 70 -52 90 -85 61 -16 -14 -19 -26 -14
-50 5 -26 2 -33 -14 -37 -29 -8 -47 6 -27 22 21 17 19 56 -5 105 -28 58 -61
86 -109 92 -36 5 -44 2 -76 -30 -40 -40 -44 -68 -15 -114 16 -27 26 -33 55
-33 39 0 46 -14 15 -30 -24 -13 -62 4 -101 47 -57 61 -76 144 -43 191 16 23
79 61 102 62 8 0 60 -19 115 -42z m-4160 4 c3 -15 15 -39 26 -53 23 -29 139
-93 188 -104 52 -11 47 -23 -5 -14 -73 14 -197 47 -252 68 -78 30 -59 6 23
-27 77 -32 201 -65 313 -83 102 -16 1027 -24 1197 -10 152 13 267 41 342 86
56 32 45 45 -16 21 -53 -21 -59 -20 -46 9 11 22 18 25 65 25 28 0 52 4 52 8 0
17 -36 40 -87 57 -31 9 -53 23 -53 31 0 8 2 14 4 14 2 0 42 -18 90 -40 78 -36
86 -42 86 -68 0 -89 -220 -161 -585 -192 -149 -12 -729 -13 -885 0 -223 17
-502 86 -591 145 -59 39 -51 60 41 111 41 23 78 42 81 43 4 1 9 -11 12 -27z
m872 13 c22 -8 67 -14 101 -15 34 0 89 -3 123 -6 77 -8 61 -24 -23 -24 -67 0
-69 -7 -5 -19 l44 -9 -44 -1 c-53 -1 -49 -8 21 -32 53 -18 53 -18 16 -18 -20
-1 -80 8 -133 19 -107 21 -140 41 -147 91 -5 33 -6 33 47 14z m477 -55 c34
-11 92 -20 128 -20 60 -1 64 -2 45 -16 -11 -8 -20 -20 -20 -27 0 -7 -10 -13
-22 -15 -31 -5 -29 -22 2 -22 14 0 25 -4 25 -10 0 -5 -22 -10 -49 -10 -47 0
-94 19 -188 76 -50 29 -42 45 11 24 32 -12 34 2 4 23 -31 22 -12 21 64 -3z
m1475 -67 c-15 -29 -32 -99 -42 -168 -3 -22 1 -69 9 -105 8 -36 12 -67 10 -69
-9 -9 -34 24 -50 65 -29 76 -4 198 58 287 25 35 34 29 15 -10z m303 -163 c39
-100 70 -159 119 -220 71 -88 69 -85 46 -72 -85 46 -159 162 -189 299 -25 115
-22 113 24 -7z m750 -179 c13 -26 27 -41 39 -41 10 0 52 16 94 35 88 41 181
65 253 65 61 0 68 -5 48 -35 -14 -21 -20 -22 -97 -18 -102 7 -171 -11 -242
-62 -28 -19 -55 -35 -61 -35 -20 0 -44 36 -58 86 -7 27 -19 70 -27 96 -11 39
-11 51 1 75 13 27 14 25 21 -49 5 -44 17 -94 29 -117z m-407 29 c68 -44 70
-52 4 -19 -63 33 -96 59 -133 110 -49 67 -42 69 17 5 28 -30 78 -74 112 -96z
m652 121 c9 -15 -32 -33 -68 -29 l-32 4 35 16 c41 19 57 21 65 9z m-5 -86
c-30 -7 -57 -12 -59 -9 -2 2 2 6 10 8 8 2 21 7 29 9 8 3 29 5 45 5 21 0 13 -4
-25 -13z m-1760 -36 c0 -10 -4 -19 -10 -19 -5 0 -10 12 -10 26 0 14 4 23 10
19 6 -3 10 -15 10 -26z m1381 2 c24 -25 38 -51 26 -51 -2 0 -21 18 -42 40 -21
22 -33 40 -26 40 7 0 26 -13 42 -29z m359 -95 c0 -6 -66 -46 -76 -46 -4 0 7
11 26 25 31 23 50 31 50 21z m-1734 -31 c54 -14 102 -29 106 -33 5 -5 -39 -12
-99 -15 -108 -6 -211 -22 -226 -37 -5 -4 52 -9 125 -12 120 -4 186 -16 162
-30 -5 -3 -54 -19 -109 -34 l-100 -29 80 -3 c44 -1 87 -5 95 -8 21 -8 -5 -21
-110 -56 l-85 -28 69 7 c47 4 67 3 63 -4 -17 -28 -128 -89 -206 -114 -92 -29
-241 -49 -241 -31 0 5 8 13 18 16 25 10 192 120 192 127 0 4 -42 -11 -92 -33
-99 -43 -229 -90 -235 -85 -1 2 11 16 27 32 44 42 37 49 -21 19 -28 -14 -53
-23 -56 -20 -3 3 12 25 32 50 42 52 37 58 -18 21 -20 -14 -37 -22 -37 -17 0 9
42 50 80 77 l25 17 -29 -6 -29 -7 42 50 c160 191 335 247 577 186z m1535 -81
c23 -4 65 4 129 25 52 17 96 29 97 27 2 -2 -15 -15 -37 -30 -22 -15 -38 -31
-35 -36 6 -10 -81 -30 -134 -30 -46 0 -85 28 -100 72 l-11 32 28 -27 c16 -15
44 -30 63 -33z m-793 0 c139 -29 258 -80 350 -149 67 -52 75 -72 15 -41 -51
26 -169 69 -218 80 -16 3 6 -12 50 -33 44 -22 110 -64 147 -95 66 -55 125
-122 116 -132 -3 -2 -26 4 -51 15 -25 11 -63 23 -84 26 l-38 6 30 -17 c48 -27
115 -84 115 -99 0 -21 -195 -73 -279 -76 -23 0 -24 -1 -6 -9 11 -5 80 -9 154
-9 131 -1 134 -1 117 -20 -33 -36 -110 -61 -192 -62 -42 -1 -72 -4 -68 -9 23
-20 87 -30 188 -30 122 0 125 -7 20 -49 l-49 -20 59 0 c52 -1 57 -3 45 -17
-21 -26 -101 -61 -167 -74 -41 -8 -108 -11 -190 -7 -106 4 -143 10 -225 37
-55 17 -97 34 -94 36 2 2 36 -2 76 -11 46 -10 121 -15 209 -14 159 1 240 16
95 18 -149 2 -291 40 -433 117 -69 38 -193 128 -226 165 -18 21 -17 20 31 -4
115 -57 215 -94 215 -78 0 6 -6 11 -13 11 -39 0 -287 195 -287 226 0 18 60 43
138 57 34 6 62 15 62 20 0 10 -135 4 -180 -8 l-25 -7 25 23 c36 32 112 65 215
92 63 18 85 27 72 32 -17 7 -123 1 -197 -12 l-35 -6 20 23 c44 49 169 90 279
90 74 0 68 8 -15 19 -62 8 -60 9 44 10 65 0 139 -5 185 -15z m423 -25 c56 -35
109 -92 109 -116 0 -10 -23 9 -57 47 -32 34 -71 71 -88 81 -16 11 -26 19 -21
19 5 0 31 -14 57 -31z m-1803 -36 c-31 -32 -77 -89 -102 -128 -49 -74 -62 -66
-22 14 33 65 72 109 125 143 25 15 47 28 50 28 3 0 -20 -26 -51 -57z m2868
-76 c18 -9 46 -28 63 -43 40 -33 40 -18 0 25 -16 18 -28 36 -25 38 8 8 97 -52
135 -91 18 -19 44 -51 57 -73 17 -28 23 -33 24 -19 0 31 15 8 40 -60 13 -38
20 -75 17 -100 -3 -32 -5 -35 -11 -18 -4 12 -18 43 -31 70 l-23 49 5 -52 c6
-56 -3 -123 -16 -123 -5 0 -12 19 -15 43 -4 23 -13 56 -21 72 -13 27 -13 23
-8 -52 3 -46 3 -83 0 -83 -4 0 -20 24 -37 53 l-30 52 0 -58 c0 -62 -14 -69
-25 -14 -8 37 -46 129 -51 124 -2 -2 3 -25 12 -50 9 -26 14 -52 12 -58 -4 -13
-80 98 -124 181 -16 30 -56 82 -89 114 -33 33 -51 57 -41 53 10 -4 30 -10 44
-13 50 -11 87 -27 135 -61 26 -18 47 -29 47 -25 0 15 -94 103 -137 129 -24 14
-43 26 -43 28 0 7 107 -23 136 -38z m-814 -24 c-34 -43 -72 -80 -72 -69 0 18
32 66 57 85 42 31 48 25 15 -16z m409 1 c48 -14 179 -79 179 -89 0 -2 -27 8
-61 21 -42 17 -86 26 -142 29 -45 2 -68 2 -52 -1 133 -21 255 -88 315 -170 17
-25 30 -47 28 -50 -3 -2 -25 7 -49 20 -49 27 -118 50 -125 43 -3 -2 19 -18 49
-35 54 -30 127 -104 127 -128 0 -16 -32 -21 -92 -13 -27 3 -48 4 -48 3 0 -1
20 -14 45 -28 25 -15 45 -31 45 -36 0 -11 -31 -21 -95 -30 -46 -6 -48 -7 -25
-17 14 -6 54 -13 90 -17 75 -8 82 -12 55 -32 -40 -30 -125 -47 -212 -42 -45 2
-83 3 -83 1 0 -4 132 -41 175 -48 35 -6 37 -8 20 -18 -61 -34 -210 -46 -307
-26 -53 11 -154 56 -146 65 3 2 40 -5 84 -16 69 -17 216 -28 202 -15 -2 3 -50
18 -105 34 -114 33 -178 62 -226 102 l-32 28 72 1 c80 0 104 14 42 24 -41 7
-133 48 -143 65 -3 5 16 15 44 22 47 12 68 29 35 29 -9 0 -38 11 -65 25 l-50
25 15 29 c17 34 68 79 110 97 49 21 1 16 -55 -6 -27 -11 -50 -16 -50 -11 0 19
63 92 99 117 90 59 226 79 332 48z m-3295 -329 c-5 -231 -24 -475 -36 -475
-13 0 -90 126 -111 179 -43 115 -62 273 -48 398 13 114 26 127 22 21 -2 -46 0
-103 5 -128 l9 -45 7 40 c4 22 17 83 29 135 l22 95 5 -102 c3 -56 8 -104 11
-108 4 -3 10 23 14 57 6 48 9 57 14 38 6 -22 8 -20 19 20 6 25 14 81 18 125
l8 80 9 -55 c5 -30 6 -154 3 -275z m-295 13 c-12 -175 -6 -307 15 -362 5 -13
4 -17 -3 -13 -22 14 -47 151 -48 262 0 99 30 313 43 300 2 -2 -1 -86 -7 -187z
m1679 97 c0 -9 -75 -54 -133 -80 -87 -38 -59 -11 41 40 97 49 92 47 92 40z
m-810 -26 c-41 -11 -79 -24 -83 -28 -4 -4 36 -6 90 -3 54 2 125 -1 158 -7 62
-12 145 -41 145 -52 0 -3 -37 -14 -82 -24 -83 -19 -83 -19 -43 -26 22 -4 55
-8 73 -8 17 -1 32 -5 32 -10 0 -19 -99 -99 -155 -125 -33 -16 -91 -34 -130
-41 l-70 -12 40 -13 c67 -23 143 -18 205 12 30 15 56 26 58 24 1 -2 -19 -18
-45 -35 -54 -36 -158 -71 -212 -71 -48 0 -141 28 -145 43 -2 7 -11 53 -20 102
-9 50 -30 119 -47 154 -23 50 -27 66 -17 73 66 44 148 67 243 67 l80 0 -75
-20z m-442 -46 c47 -57 85 -130 101 -198 15 -59 16 -238 2 -263 -8 -13 -11 -7
-11 28 l-1 45 -20 -70 c-30 -106 -57 -120 -99 -53 -47 76 -66 184 -61 338 3
72 3 73 14 40 l12 -35 3 58 c2 33 7 55 13 52 5 -4 9 -15 9 -26 0 -10 4 -19 10
-19 10 0 5 39 -16 108 -6 23 -8 42 -4 42 4 0 26 -21 48 -47z m3548 -360 c-37
-108 -102 -177 -191 -202 -68 -19 -72 -12 -12 22 32 17 79 52 104 77 42 41
101 144 104 180 1 8 4 5 6 -8 3 -13 -3 -44 -11 -69z m361 66 c37 -15 73 -38
105 -70 26 -26 48 -44 48 -38 0 14 -40 91 -59 113 -15 18 -15 18 5 8 28 -15
70 -65 95 -113 23 -47 37 -153 20 -163 -6 -4 -11 -1 -12 6 -2 31 -17 -42 -18
-89 -1 -29 -4 -53 -7 -53 -8 0 -131 86 -182 127 -23 19 -49 48 -58 65 -8 16
-18 27 -21 24 -3 -3 7 -26 21 -52 14 -26 25 -49 23 -51 -7 -6 -57 65 -74 105
-17 38 -23 154 -11 185 10 23 54 22 125 -4z m-3066 -67 c-44 -86 -137 -154
-279 -201 -52 -18 -195 -31 -181 -17 3 3 36 10 74 16 132 20 337 146 385 235
23 42 24 11 1 -33z m812 -104 c59 -23 302 -78 348 -79 27 0 30 -2 14 -8 -32
-13 -214 5 -275 27 -71 25 -156 68 -166 84 -5 8 -2 9 12 3 10 -4 41 -16 67
-27z m2050 -50 c47 -79 137 -177 210 -229 39 -28 61 -48 47 -44 -111 33 -227
147 -270 266 -10 27 -17 49 -15 49 2 0 14 -19 28 -42z m-1093 -9 c0 -6 -17
-29 -39 -50 -41 -42 -38 -48 10 -23 17 8 33 13 36 10 10 -9 -38 -75 -80 -111
-39 -34 -37 -46 5 -24 16 8 19 8 13 -1 -13 -21 -131 -69 -205 -85 -65 -14
-130 -11 -130 4 0 4 24 16 53 27 l52 19 -92 5 c-50 3 -94 8 -98 11 -6 7 98 59
116 59 4 0 10 4 13 9 4 5 -20 7 -56 4 -69 -6 -72 -1 -12 21 l39 15 -40 1 -40
1 43 14 c24 7 82 18 129 25 82 11 222 49 253 70 20 13 30 13 30 -1z m-1106
-39 c34 -21 97 -56 141 -77 58 -27 74 -38 58 -41 -55 -8 -181 56 -247 127 -40
42 -25 39 48 -9z m1360 5 c88 -40 191 -107 199 -130 8 -19 -10 -19 -59 1 -35
15 -37 15 -24 -1 7 -9 15 -27 16 -40 2 -22 0 -24 -29 -18 -18 3 -40 10 -49 14
-33 17 -32 8 2 -20 19 -16 32 -33 28 -36 -4 -4 -56 8 -115 27 l-108 35 -3 81
c-3 91 -2 92 65 73 20 -6 35 -6 38 0 4 5 3 9 -2 9 -13 1 -59 40 -47 40 6 0 46
-16 88 -35z m-3094 -111 c34 -74 44 -87 77 -101 32 -13 48 -14 103 -5 35 6 66
9 69 7 2 -3 -18 -14 -44 -26 -89 -39 -180 -13 -217 62 -21 42 -49 161 -36 153
5 -3 27 -44 48 -90z m980 46 c-27 -38 -74 -73 -124 -94 -67 -28 -72 -17 -10
20 32 19 77 51 99 69 50 42 63 44 35 5z m689 -105 c21 -14 82 -46 137 -71 l99
-45 -55 6 c-75 9 -126 33 -185 88 -56 51 -54 60 4 22z m2885 -17 c27 -17 63
-52 82 -77 59 -81 104 -226 104 -339 l0 -57 -48 77 c-26 43 -49 78 -53 78 -3
0 10 -44 28 -97 17 -54 42 -150 53 -213 12 -63 24 -126 27 -140 l6 -25 7 25
c5 14 9 48 10 75 l2 50 14 -45 c45 -137 79 -348 60 -367 -3 -3 -6 6 -6 20 0
37 -16 34 -24 -4 -11 -57 -6 -89 24 -162 32 -74 35 -112 10 -112 -10 0 -18 16
-24 43 -13 54 -26 54 -26 -1 0 -56 -17 -71 -100 -90 -55 -13 -70 -22 -100 -56
-41 -47 -50 -50 -50 -18 0 35 34 82 75 101 33 16 35 19 22 34 -25 29 -47 80
-47 109 0 39 -14 56 -38 49 -15 -5 -22 -2 -27 13 -5 17 -11 14 -56 -29 -39
-38 -51 -56 -54 -84 -4 -44 -17 -61 -56 -75 -35 -12 -37 -2 -8 39 18 24 21 37
15 79 -6 49 -6 50 46 111 121 141 149 176 167 215 l20 40 1 -30 c1 -16 5 -39
10 -50 16 -39 23 12 17 123 -5 117 -26 184 -105 352 -61 131 -92 262 -77 330
7 30 8 31 26 14 11 -10 29 -33 40 -51 12 -19 23 -32 26 -29 2 2 -7 42 -22 88
-14 45 -28 91 -31 101 -8 25 6 21 60 -15z m-1164 -53 c-16 -58 -90 -125 -90
-82 0 8 9 22 21 33 12 10 32 38 46 62 31 53 40 48 23 -13z m-1084 -123 c-10
-9 -76 21 -101 46 -25 25 -65 92 -65 109 0 4 38 -28 85 -71 47 -44 83 -81 81
-84z m1566 93 c40 -33 99 -64 168 -86 l55 -18 -46 0 c-80 -1 -145 31 -195 96
-30 40 -23 42 18 8z m-1072 -55 c-25 -22 -45 -44 -45 -50 0 -5 -9 -16 -20 -24
-32 -25 -6 -18 42 10 25 14 47 23 51 20 3 -4 -10 -22 -29 -42 -23 -24 -28 -33
-15 -28 19 7 18 6 -2 -24 -26 -36 -69 -72 -86 -72 -6 0 2 12 18 26 15 14 26
27 24 29 -2 3 -38 -9 -80 -25 -71 -28 -158 -52 -158 -44 0 2 21 19 46 39 26
19 45 35 43 35 -2 0 -35 -11 -74 -24 -38 -14 -71 -23 -74 -21 -7 8 22 37 74
72 27 20 43 33 35 31 -8 -3 -39 -13 -68 -23 -65 -21 -78 -14 -25 14 41 22 40
27 -2 11 -51 -19 -16 6 67 48 79 41 216 79 293 81 l30 1 -45 -40z m-949 -138
c-21 -7 -119 53 -163 100 -27 28 -48 54 -48 58 0 5 50 -28 110 -73 61 -45 106
-83 101 -85z m1216 133 c27 -16 51 -41 64 -66 28 -56 20 -68 -23 -30 -45 39
-53 39 -33 1 8 -16 18 -51 20 -77 3 -27 2 -42 -1 -35 -7 16 -94 76 -100 69 -3
-2 5 -21 17 -41 12 -20 19 -39 16 -42 -7 -7 -81 31 -93 48 -5 7 -8 57 -6 112
l3 99 46 -7 c26 -3 66 -18 90 -31z m-889 -202 c8 -14 12 -26 10 -29 -2 -2 -28
16 -58 40 -50 38 -110 124 -110 155 0 14 141 -133 158 -166z m1282 132 c0 -18
-50 -77 -75 -89 -66 -31 -79 -27 -28 8 29 20 60 48 69 61 15 22 34 34 34 20z
m702 -242 c17 -30 45 -70 63 -89 46 -49 22 -42 -31 9 -28 26 -52 62 -64 95
-25 66 -10 59 32 -15z m-2044 -72 c37 -40 77 -110 68 -119 -12 -11 -176 169
-176 193 0 13 76 -38 108 -74z m2408 -103 c8 -26 14 -64 12 -85 -3 -36 -4 -35
-26 37 -13 41 -31 95 -40 120 -9 25 -19 49 -20 55 -2 5 10 -10 27 -35 17 -25
38 -66 47 -92z m-2591 1 c86 -61 147 -119 126 -119 -38 0 -131 59 -193 123
-108 112 -92 111 67 -4z m735 74 c0 -1 -17 -14 -37 -29 -39 -27 -36 -28 35 -8
12 4 22 2 22 -4 0 -12 -57 -62 -71 -62 -5 0 -9 -5 -9 -11 0 -7 11 -8 32 -3 29
6 31 5 19 -9 -19 -24 -93 -57 -128 -57 -33 0 -56 20 -72 64 -11 28 -11 28 19
24 l30 -5 -20 22 c-28 30 -25 35 15 28 46 -7 44 2 -5 27 -22 11 -40 22 -40 24
0 2 47 3 105 2 58 0 105 -2 105 -3z m234 -18 c20 -8 36 -17 36 -19 0 -3 3 -12
7 -21 5 -15 3 -16 -16 -5 -27 14 -38 8 -16 -10 26 -22 19 -81 -16 -123 -17
-20 -35 -37 -40 -37 -13 0 -9 179 3 186 5 3 6 14 3 25 -8 23 -7 23 39 4z
m-577 -37 c23 -26 37 -71 21 -66 -14 5 -62 88 -51 88 5 0 19 -10 30 -22z m755
-30 c4 -60 -14 -111 -55 -155 -35 -39 -37 -26 -7 38 16 34 32 79 35 100 7 42
24 53 27 17z m-1598 -175 c-31 -100 -54 -231 -54 -312 0 -115 -21 -95 -27 26
-6 94 6 171 34 232 21 44 54 101 59 101 1 0 -4 -21 -12 -47z m140 -100 c-23
-99 -12 -218 32 -339 14 -36 -30 12 -54 59 -53 107 -45 243 20 325 16 19 16
16 2 -45z m561 27 c209 -42 421 -143 605 -290 34 -28 65 -48 68 -45 7 6 -42
69 -107 138 -30 31 -49 57 -44 57 22 0 164 -101 233 -166 40 -38 90 -94 111
-125 41 -61 75 -136 66 -146 -4 -3 -40 30 -82 73 -85 88 -86 88 -21 -9 25 -38
46 -74 46 -80 0 -6 -21 9 -47 34 -71 68 -202 173 -280 222 -89 57 -163 100
-163 94 0 -2 33 -28 73 -58 99 -73 202 -173 249 -242 22 -32 38 -61 35 -63 -2
-3 -25 9 -50 26 -65 43 -67 37 -5 -14 61 -50 142 -144 115 -133 -10 4 -61 36
-113 73 -91 63 -129 75 -61 19 17 -15 48 -46 67 -68 l35 -41 -90 49 c-50 27
-121 70 -160 96 -99 67 -299 187 -304 183 -2 -2 13 -25 35 -51 61 -75 67 -83
58 -83 -5 0 -32 22 -60 48 -27 26 -75 67 -105 92 -73 60 -210 192 -205 198 2
2 15 -2 28 -9 31 -17 321 -119 325 -115 12 11 -189 171 -285 227 -80 47 -67
49 93 15 61 -13 112 -22 114 -20 3 3 -95 52 -249 123 -17 7 -18 10 -5 7 11 -3
47 -10 80 -16z m-145 -495 c25 -27 54 -61 65 -74 20 -24 20 -24 0 -13 -35 19
-122 115 -150 167 l-27 50 33 -40 c19 -22 54 -62 79 -90z m400 -84 c77 -39
202 -96 320 -145 8 -3 -12 -3 -45 0 -156 15 -378 128 -427 218 -10 18 -8 18
23 -3 19 -12 77 -44 129 -70z m2075 -9 c-9 -9 -43 29 -49 54 -12 48 7 47 31
-1 12 -27 21 -51 18 -53z m-2932 -2 c62 -84 152 -175 211 -214 45 -30 32 -35
-22 -7 -91 46 -156 106 -204 187 -25 43 -49 90 -53 104 -9 31 -3 25 68 -70z
m376 -58 c20 -16 65 -46 100 -66 68 -39 344 -166 362 -166 6 0 8 -4 5 -9 -9
-13 -164 28 -245 65 -77 36 -140 80 -226 158 -55 51 -53 62 4 18z m-648 -219
c-5 -36 -20 -84 -31 -106 -24 -47 -70 -110 -76 -105 -6 6 53 219 83 298 l28
75 3 -49 c2 -26 -1 -78 -7 -113z m188 50 c-21 -63 -60 -133 -83 -152 -9 -8 7
37 36 98 55 119 79 147 47 54z m1670 -12 c60 -43 81 -109 66 -207 l-7 -47 -24
29 -24 29 6 -42 7 -43 -68 65 c-37 36 -71 65 -76 65 -5 0 -9 4 -9 9 0 6 16 3
36 -5 20 -8 38 -13 40 -11 3 2 -10 20 -28 39 -71 75 -80 89 -66 106 35 42 100
48 147 13z m-311 -97 c20 -6 97 -102 88 -111 -5 -6 -162 85 -176 102 -11 13
-7 15 26 15 22 0 49 -3 62 -6z m-1807 -76 c-58 -34 -189 -154 -156 -143 61 20
145 38 151 33 17 -18 -80 -137 -152 -186 -35 -24 -182 -84 -196 -80 -5 2 10
22 33 46 45 45 40 51 -18 27 -20 -8 -38 -14 -40 -12 -7 7 21 74 52 122 37 58
112 128 170 158 44 22 171 66 195 66 8 0 -9 -14 -39 -31z m1751 -151 c26 -19
54 -53 71 -86 24 -48 27 -65 26 -140 -1 -47 -4 -97 -8 -111 -7 -24 -8 -24 -18
-5 -5 11 -18 44 -29 73 -10 28 -21 52 -24 52 -4 0 -1 -44 5 -97 7 -54 10 -100
8 -103 -19 -22 -104 293 -103 385 0 18 2 18 20 -5 16 -21 20 -22 20 -7 0 10
-7 31 -15 47 -20 39 -7 38 47 -3z m522 -127 c26 -59 82 -317 72 -328 -7 -6
-64 97 -87 158 -30 81 -42 152 -34 206 8 54 12 51 49 -36z m-174 -70 c68 -66
127 -184 169 -333 15 -54 16 -65 4 -55 -18 14 -147 232 -163 272 -6 16 -26 60
-45 98 -19 38 -35 72 -35 75 0 6 35 -23 70 -57z m-1674 35 c-22 -16 -106 -21
-106 -6 0 12 25 18 80 20 42 0 44 -1 26 -14z m-305 -42 c-32 -40 -89 -78 -154
-102 -87 -32 -101 -25 -27 14 36 19 90 52 120 74 66 47 91 53 61 14z m-681
-191 c0 -4 -23 -30 -51 -57 -28 -28 -61 -70 -74 -95 l-23 -45 -7 28 c-8 30 16
107 39 127 20 16 89 49 104 50 6 0 12 -4 12 -8z m2680 -304 c0 -18 -68 73 -96
128 -13 28 -27 68 -30 90 -5 32 5 18 60 -84 36 -67 66 -127 66 -134z m-2936
72 c-4 -8 -12 -34 -18 -57 -6 -24 -14 -43 -18 -43 -12 0 -9 109 3 132 11 21
12 21 26 3 7 -11 10 -26 7 -35z m3291 -223 c6 -6 1 -7 -15 -2 -41 12 -74 31
-95 56 -17 19 -11 18 40 -11 33 -18 65 -37 70 -43z m550 11 c-10 -18 -33 -50
-53 -70 -41 -43 -38 -57 7 -34 42 22 43 21 19 -20 -29 -50 -124 -117 -199
-143 -35 -11 -64 -19 -66 -17 -2 2 17 16 43 31 59 34 126 94 118 106 -3 5 -27
9 -54 9 -56 0 -75 15 -31 25 37 8 101 49 170 108 30 26 56 45 59 43 2 -2 -4
-19 -13 -38z m-865 -143 l64 -65 -47 0 c-37 0 -49 4 -61 23 -14 20 -33 107
-24 107 2 0 33 -29 68 -65z m-2458 -44 c22 -29 21 -86 -2 -86 -13 0 -78 113
-79 138 -1 13 60 -26 81 -52z"/>
<path d="M1026 6132 c-3 -6 -1 -14 5 -17 15 -10 25 3 12 16 -7 7 -13 7 -17 1z"/>
<path d="M1253 6133 c-18 -6 -16 -23 1 -23 17 0 30 16 19 23 -5 2 -14 2 -20 0z"/>
<path d="M910 6120 c0 -5 5 -10 11 -10 5 0 7 5 4 10 -3 6 -8 10 -11 10 -2 0
-4 -4 -4 -10z"/>
<path d="M1120 6120 c0 -5 7 -10 15 -10 8 0 15 5 15 10 0 6 -7 10 -15 10 -8 0
-15 -4 -15 -10z"/>
<path d="M1360 6100 c-8 -5 -12 -12 -9 -15 8 -8 39 5 39 16 0 11 -11 11 -30
-1z"/>
<path d="M780 6085 c0 -8 5 -15 10 -15 6 0 10 7 10 15 0 8 -4 15 -10 15 -5 0
-10 -7 -10 -15z"/>
<path d="M1030 6070 c0 -5 5 -10 10 -10 6 0 10 5 10 10 0 6 -4 10 -10 10 -5 0
-10 -4 -10 -10z"/>
<path d="M890 6060 c0 -5 5 -10 10 -10 6 0 10 5 10 10 0 6 -4 10 -10 10 -5 0
-10 -4 -10 -10z"/>
<path d="M1085 6050 c3 -5 13 -10 21 -10 8 0 14 5 14 10 0 6 -9 10 -21 10 -11
0 -17 -4 -14 -10z"/>
<path d="M1255 6050 c3 -5 8 -10 11 -10 2 0 4 5 4 10 0 6 -5 10 -11 10 -5 0
-7 -4 -4 -10z"/>
<path d="M690 6020 c0 -5 7 -10 15 -10 8 0 15 5 15 10 0 6 -7 10 -15 10 -8 0
-15 -4 -15 -10z"/>
<path d="M1365 6010 c-3 -5 1 -10 10 -10 9 0 13 5 10 10 -3 6 -8 10 -10 10 -2
0 -7 -4 -10 -10z"/>
<path d="M1130 6000 c0 -5 7 -10 16 -10 8 0 12 5 9 10 -3 6 -10 10 -16 10 -5
0 -9 -4 -9 -10z"/>
<path d="M945 5990 c-3 -5 1 -10 9 -10 9 0 16 5 16 10 0 6 -4 10 -9 10 -6 0
-13 -4 -16 -10z"/>
<path d="M826 5922 c-3 -6 -1 -14 5 -17 15 -10 25 3 12 16 -7 7 -13 7 -17 1z"/>
<path d="M1025 5920 c-3 -5 3 -10 14 -10 12 0 21 5 21 10 0 6 -6 10 -14 10 -8
0 -18 -4 -21 -10z"/>
<path d="M1260 5920 c0 -5 5 -10 10 -10 6 0 10 5 10 10 0 6 -4 10 -10 10 -5 0
-10 -4 -10 -10z"/>
<path d="M1971 5766 c-30 -13 -79 -43 -109 -67 -111 -89 -160 -119 -294 -179
-75 -34 -142 -68 -148 -75 -19 -23 -7 -66 23 -89 27 -20 39 -21 176 -18 137 3
154 2 222 -22 117 -40 150 -43 184 -13 27 23 29 30 35 128 8 118 14 133 70
181 37 33 70 89 70 122 0 9 -10 24 -22 36 -32 29 -134 27 -207 -4z m40 -93
c-26 -33 -21 -40 13 -17 15 9 30 14 33 10 14 -14 -62 -75 -157 -126 -55 -29
-100 -56 -100 -60 0 -4 21 -3 48 1 75 12 81 9 27 -16 -52 -25 -39 -33 24 -15
19 5 36 8 39 6 8 -8 -90 -45 -146 -55 -63 -11 -152 -20 -152 -16 0 2 24 18 53
35 55 33 51 33 -52 -6 -35 -14 -66 -23 -68 -20 -2 2 23 19 56 37 69 38 78 52
25 38 -19 -6 -41 -8 -47 -6 -7 2 29 16 78 31 84 26 94 32 153 92 59 62 75 69
51 21 -7 -14 4 -7 32 19 75 70 131 99 90 47z"/>
<path d="M600 5294 c0 -3 19 -14 43 -24 44 -20 136 -29 107 -10 -8 5 -27 10
-41 10 -15 0 -45 7 -68 15 -22 8 -41 12 -41 9z"/>
</g>
</svg>
